<?xml version="1.0" encoding="iso-8859-1"?>
<!-- Generator: Adobe Illustrator 19.0.0, SVG Export Plug-In . SVG Version: 6.00 Build 0)  -->
<svg version="1.1" id="Layer_1" xmlns="http://www.w3.org/2000/svg" xmlns:xlink="http://www.w3.org/1999/xlink" x="0px" y="0px"
	 viewBox="0 0 512 512" style="enable-background:new 0 0 512 512;" xml:space="preserve">
<g>
	<rect x="138" y="48" style="fill:#38383B;" width="8" height="40"/>
	<rect x="154" y="48" style="fill:#38383B;" width="8" height="40"/>
	<rect x="170" y="48" style="fill:#38383B;" width="8" height="40"/>
	<rect x="186" y="48" style="fill:#38383B;" width="8" height="40"/>
	<rect x="202" y="48" style="fill:#38383B;" width="8" height="40"/>
	<rect x="218" y="48" style="fill:#38383B;" width="8" height="40"/>
	<rect x="234" y="48" style="fill:#38383B;" width="8" height="40"/>
	<rect x="250" y="48" style="fill:#38383B;" width="8" height="40"/>
	<rect x="266" y="48" style="fill:#38383B;" width="8" height="40"/>
	<rect x="282" y="48" style="fill:#38383B;" width="8" height="40"/>
	<rect x="298" y="48" style="fill:#38383B;" width="8" height="40"/>
	<rect x="314" y="48" style="fill:#38383B;" width="8" height="40"/>
</g>
<g>
	<path style="fill:#FC5C3A;" d="M346,0H162c-6,0-12.4,2.4-16.8,7.2C140.4,12,138,18,138,24v24h184c6,0,12.4-2.4,16.8-7.2
		C343.6,36,346,30,346,24V0z"/>
	<rect x="346" style="fill:#FC5C3A;" width="96" height="24"/>
</g>
<path style="fill:#E2E9ED;" d="M394,220c0-50.8-41.2-92-92-92c-36,0-40,16-60,16s-24-16-60-16c-50.8,0-92,41.2-92,92
	c0,52,36,84,48,112c4.8,11.6,2.8,48,4,64c4,48,25.6,116,52,116c36.4,0,4-148,48-148s11.6,148,48,148c26.4,0,48-68,52-116
	c1.2-16-0.8-52.4,4-64C358,304,394,272,394,220z"/>
<path style="fill:#80E1F2;" d="M242,132c-5.6,0-9.2-2-15.2-4.8c-4.4-2.4-10-4.8-16.8-7.2v68c0,3.2,1.2,6,3.6,8.4s5.6,3.6,8.4,3.6
	s6-1.2,8.4-3.6s3.6-5.6,3.6-8.4v-8c0-6.8,5.2-12,12-12s12,5.2,12,12v100c0,3.2,1.2,6,3.6,8.4c2.4,2.4,5.6,3.6,8.4,3.6s6-1.2,8.4-3.6
	s3.6-5.6,3.6-8.4v-28c0-6.8,5.2-12,12-12s12,5.2,12,12v4c0,3.2,1.2,6,3.6,8.4s5.6,3.6,8.4,3.6s6-1.2,8.4-3.6s3.6-5.6,3.6-8.4v-48
	c0-6.8,5.2-12,12-12s12,5.2,12,12v4c0,3.2,1.2,6,3.6,8.4s5.6,3.6,8.4,3.6s6-1.2,8.4-3.6s3.6-5.6,3.6-8.4v-64c-18.8-20.4-46-32-76-32
	c-23.6,0-36,6.4-44.8,11.2C251.2,130,247.6,132,242,132z"/>
<path style="fill:#FFFFFF;" d="M126,228c-4.4,0-8-3.6-8-8c0-35.2,28.8-64,64-64c4.4,0,8,3.6,8,8s-3.6,8-8,8c-26.4,0-48,21.6-48,48
	C134,224.4,130.4,228,126,228z"/>
<g>
	<path style="fill:#38383B;" d="M102,136L102,136c-3.6,0-6.8-0.8-10-2.8l4-6.8c1.6,1.2,4,1.6,6,1.6V136z M112,133.2l-4-6.8
		c2-1.2,3.2-2.4,4.4-4.4l6.8,4C117.6,128.8,115.2,131.6,112,133.2z M84.8,126c-1.6-3.2-2.8-6.4-2.8-10h8c0,2,0.4,4,1.6,6L84.8,126z
		 M114,116c0-2-0.4-4-1.6-6l6.8-4c1.6,3.2,2.8,6.4,2.8,10H114z M91.6,110l-6.8-4c1.6-3.2,4.4-5.6,7.2-7.2l4,6.8
		C94,106.8,92.4,108.4,91.6,110z M108,105.6c-2-1.2-4-1.6-6-1.6v-8l0,0c3.6,0,6.8,0.8,10,2.8L108,105.6z"/>
	<path style="fill:#38383B;" d="M378,384L378,384c-3.2,0-6.4-0.4-9.2-1.6l3.2-7.6c2,0.8,4,1.2,6,1.2V384z M387.2,382l-3.2-7.2
		c2-0.8,3.6-2,5.2-3.6l5.6,5.6C392.8,379.2,390.4,380.8,387.2,382z M361.2,377.2c-2.4-2.4-4-4.8-5.2-7.6l7.2-3.2
		c0.8,2,2,3.6,3.6,5.2L361.2,377.2z M400.4,369.2l-7.2-3.2c0.8-2,1.2-4,1.2-6h8l0,0C402,363.2,401.2,366.4,400.4,369.2z M354,360
		L354,360c0-3.2,0.4-6.4,1.6-9.2l7.6,2.8c-0.8,2-1.2,4-1.2,6L354,360z M392.8,354c-0.8-2-2-3.6-3.6-5.2l5.6-5.6
		c2.4,2.4,4,4.8,5.2,7.6L392.8,354z M366.4,348.8l-5.6-5.6c2.4-2.4,4.8-4,7.6-5.2l3.2,7.2C369.6,346,368,347.2,366.4,348.8z
		 M384,345.2c-2-0.8-4-1.2-6-1.2l-0.4-8h0.4c3.2,0,6.4,0.8,9.2,2L384,345.2z"/>
	<path style="fill:#38383B;" d="M106,340v-8c2.4,0,4.4-0.4,6.8-0.8l2,7.6C112,339.6,109.2,340,106,340z M97.6,338.8
		c-2.8-0.8-5.6-1.6-8-3.2l3.6-7.2c2,1.2,4,2,6.4,2.4L97.6,338.8z M122.8,336l-3.6-7.2c2-1.2,4-2.4,5.6-4l5.2,6
		C127.6,332.8,125.6,334.4,122.8,336z M82.4,331.2c-2-2-4-4-5.6-6.4l6.4-4.4c1.2,2,2.8,3.6,4.4,5.2L82.4,331.2z M135.6,324.4
		l-6.4-4.4c1.2-2,2.4-4,3.2-6l7.6,2.8C138.8,319.2,137.2,322,135.6,324.4z M72.4,316.8c-1.2-2.8-1.6-5.6-2-8.4l8-1.2
		c0.4,2.4,0.8,4.4,1.6,6.4L72.4,316.8z M141.6,308.4l-8-0.8c0-1.2,0-2,0-3.2s0-2.4-0.4-3.6l8-0.8c0,1.6,0.4,2.8,0.4,4.4
		C142,305.6,142,306.8,141.6,308.4z M78,300.8l-8-0.8c0.4-2.8,1.2-5.6,2-8.4l7.6,2.8C78.8,296.4,78.4,298.4,78,300.8z M132,294
		c-0.8-2-2-4-3.2-6l6.4-4.4c1.6,2.4,3.2,4.8,4,7.6L132,294z M82.8,288.4L76,284c1.6-2.4,3.6-4.4,5.6-6.4l5.2,6
		C85.6,284.8,84,286.4,82.8,288.4z M124.4,283.2c-1.6-1.6-3.6-2.8-5.6-4l3.6-7.2c2.4,1.2,4.8,3.2,7.2,4.8L124.4,283.2z M92.8,279.2
		l-3.6-7.2c2.4-1.2,5.2-2.4,8-3.2l2,7.6C96.8,277.6,94.8,278.4,92.8,279.2z M112.8,276.8c-2-0.4-4.4-0.8-6.8-0.8l-0.4-8h0.4
		c2.8,0,5.6,0.4,8.8,1.2L112.8,276.8z"/>
</g>
<g>
	<circle style="fill:#80E1F2;" cx="382" cy="280" r="16"/>
	<circle style="fill:#80E1F2;" cx="366" cy="92" r="20"/>
	<circle style="fill:#80E1F2;" cx="402" cy="128" r="8"/>
	<circle style="fill:#80E1F2;" cx="174" cy="124" r="12"/>
</g>
<g>
	<path style="fill:#71CEE1;" d="M354,208v4c0,3.2,1.2,6,3.6,8.4s5.6,3.6,8.4,3.6s6-1.2,8.4-3.6s3.6-5.6,3.6-8.4v-44
		c-16.4-24.4-44.4-40-76-40c-36,0-40,16-60,16c-13.2,0-19.2-6.8-32-11.6V188c0,3.2,1.2,6,3.6,8.4s5.6,3.6,8.4,3.6s6-1.2,8.4-3.6
		s3.6-5.6,3.6-8.4v-8c0-6.8,5.2-12,12-12s12,5.2,12,12v100c0,3.2,1.2,6,3.6,8.4c2.4,2.4,5.6,3.6,8.4,3.6s6-1.2,8.4-3.6
		s3.6-5.6,3.6-8.4v-28c0-6.8,5.2-12,12-12s12,5.2,12,12v4c0,3.2,1.2,6,3.6,8.4s5.6,3.6,8.4,3.6s6-1.2,8.4-3.6s3.6-5.6,3.6-8.4v-48
		c0-6.8,5.2-12,12-12S354,201.2,354,208z"/>
	<path style="fill:#71CEE1;" d="M185.2,128c-1.2,0-2,0-3.2,0c-6.4,0-12.4,0.8-18.4,2c2,3.6,6,6,10.4,6
		C179.2,136,183.6,132.8,185.2,128z"/>
	<path style="fill:#71CEE1;" d="M382,264c-8.8,0-16,7.2-16,16c0,4.4,1.6,8.4,4.8,11.2c5.2-8.4,10-17.2,14-27.2
		C384,264,382.8,264,382,264z"/>
</g>
<g>
</g>
<g>
</g>
<g>
</g>
<g>
</g>
<g>
</g>
<g>
</g>
<g>
</g>
<g>
</g>
<g>
</g>
<g>
</g>
<g>
</g>
<g>
</g>
<g>
</g>
<g>
</g>
<g>
</g>
</svg>
